<svg width="904" height="196" viewBox="0 0 904 196" fill="none" xmlns="http://www.w3.org/2000/svg">
<path d="M96.6094 51.2031V117.719C96.6094 125.312 94.8984 131.969 91.4766 137.688C88.1016 143.406 83.2031 147.789 76.7812 150.836C70.3594 153.883 62.7656 155.406 54 155.406C40.7812 155.406 30.5156 152.031 23.2031 145.281C15.8906 138.484 12.2344 129.203 12.2344 117.438V51.2031H33.9609V114.133C33.9609 122.055 35.5547 127.867 38.7422 131.57C41.9297 135.273 47.2031 137.125 54.5625 137.125C61.6875 137.125 66.8438 135.273 70.0312 131.57C73.2656 127.82 74.8828 121.961 74.8828 113.992V51.2031H96.6094ZM160.805 96.2734H201.586V149.57C194.977 151.727 188.742 153.227 182.883 154.07C177.07 154.961 171.117 155.406 165.023 155.406C149.508 155.406 137.648 150.859 129.445 141.766C121.289 132.625 117.211 119.523 117.211 102.461C117.211 85.8672 121.945 72.9297 131.414 63.6484C140.93 54.3672 154.102 49.7266 170.93 49.7266C181.477 49.7266 191.648 51.8359 201.445 56.0547L194.203 73.4922C186.703 69.7422 178.898 67.8672 170.789 67.8672C161.367 67.8672 153.82 71.0312 148.148 77.3594C142.477 83.6875 139.641 92.1953 139.641 102.883C139.641 114.039 141.914 122.57 146.461 128.477C151.055 134.336 157.711 137.266 166.43 137.266C170.977 137.266 175.594 136.797 180.281 135.859V114.414H160.805V96.2734ZM269.789 67.8672C261.586 67.8672 255.234 70.9609 250.734 77.1484C246.234 83.2891 243.984 91.8672 243.984 102.883C243.984 125.805 252.586 137.266 269.789 137.266C277.008 137.266 285.75 135.461 296.016 131.852V150.133C287.578 153.648 278.156 155.406 267.75 155.406C252.797 155.406 241.359 150.883 233.438 141.836C225.516 132.742 221.555 119.711 221.555 102.742C221.555 92.0547 223.5 82.7031 227.391 74.6875C231.281 66.625 236.859 60.4609 244.125 56.1953C251.438 51.8828 259.992 49.7266 269.789 49.7266C279.773 49.7266 289.805 52.1406 299.883 56.9688L292.852 74.6875C289.008 72.8594 285.141 71.2656 281.25 69.9062C277.359 68.5469 273.539 67.8672 269.789 67.8672ZM476.086 154L451.336 73.3516H450.703C451.594 89.7578 452.039 100.703 452.039 106.188V154H432.562V51.2031H462.234L486.562 129.812H486.984L512.789 51.2031H542.461V154H522.141V105.344C522.141 103.047 522.164 100.398 522.211 97.3984C522.305 94.3984 522.633 86.4297 523.195 73.4922H522.562L496.055 154H476.086ZM590.203 99.5781H597.375C604.078 99.5781 609.094 98.2656 612.422 95.6406C615.75 92.9688 617.414 89.1016 617.414 84.0391C617.414 78.9297 616.008 75.1562 613.195 72.7188C610.43 70.2812 606.07 69.0625 600.117 69.0625H590.203V99.5781ZM639.422 83.2656C639.422 94.3281 635.953 102.789 629.016 108.648C622.125 114.508 612.305 117.438 599.555 117.438H590.203V154H568.406V51.2031H601.242C613.711 51.2031 623.18 53.8984 629.648 59.2891C636.164 64.6328 639.422 72.625 639.422 83.2656ZM818.93 125.453C818.93 134.734 815.578 142.047 808.875 147.391C802.219 152.734 792.938 155.406 781.031 155.406C770.062 155.406 760.359 153.344 751.922 149.219V128.969C758.859 132.062 764.719 134.242 769.5 135.508C774.328 136.773 778.734 137.406 782.719 137.406C787.5 137.406 791.156 136.492 793.688 134.664C796.266 132.836 797.555 130.117 797.555 126.508C797.555 124.492 796.992 122.711 795.867 121.164C794.742 119.57 793.078 118.047 790.875 116.594C788.719 115.141 784.289 112.82 777.586 109.633C771.305 106.68 766.594 103.844 763.453 101.125C760.312 98.4062 757.805 95.2422 755.93 91.6328C754.055 88.0234 753.117 83.8047 753.117 78.9766C753.117 69.8828 756.188 62.7344 762.328 57.5312C768.516 52.3281 777.047 49.7266 787.922 49.7266C793.266 49.7266 798.352 50.3594 803.18 51.625C808.055 52.8906 813.141 54.6719 818.438 56.9688L811.406 73.9141C805.922 71.6641 801.375 70.0938 797.766 69.2031C794.203 68.3125 790.688 67.8672 787.219 67.8672C783.094 67.8672 779.93 68.8281 777.727 70.75C775.523 72.6719 774.422 75.1797 774.422 78.2734C774.422 80.1953 774.867 81.8828 775.758 83.3359C776.648 84.7422 778.055 86.125 779.977 87.4844C781.945 88.7969 786.562 91.1875 793.828 94.6562C803.438 99.25 810.023 103.867 813.586 108.508C817.148 113.102 818.93 118.75 818.93 125.453ZM898.242 125.453C898.242 134.734 894.891 142.047 888.188 147.391C881.531 152.734 872.25 155.406 860.344 155.406C849.375 155.406 839.672 153.344 831.234 149.219V128.969C838.172 132.062 844.031 134.242 848.812 135.508C853.641 136.773 858.047 137.406 862.031 137.406C866.812 137.406 870.469 136.492 873 134.664C875.578 132.836 876.867 130.117 876.867 126.508C876.867 124.492 876.305 122.711 875.18 121.164C874.055 119.57 872.391 118.047 870.188 116.594C868.031 115.141 863.602 112.82 856.898 109.633C850.617 106.68 845.906 103.844 842.766 101.125C839.625 98.4062 837.117 95.2422 835.242 91.6328C833.367 88.0234 832.43 83.8047 832.43 78.9766C832.43 69.8828 835.5 62.7344 841.641 57.5312C847.828 52.3281 856.359 49.7266 867.234 49.7266C872.578 49.7266 877.664 50.3594 882.492 51.625C887.367 52.8906 892.453 54.6719 897.75 56.9688L890.719 73.9141C885.234 71.6641 880.688 70.0938 877.078 69.2031C873.516 68.3125 870 67.8672 866.531 67.8672C862.406 67.8672 859.242 68.8281 857.039 70.75C854.836 72.6719 853.734 75.1797 853.734 78.2734C853.734 80.1953 854.18 81.8828 855.07 83.3359C855.961 84.7422 857.367 86.125 859.289 87.4844C861.258 88.7969 865.875 91.1875 873.141 94.6562C882.75 99.25 889.336 103.867 892.898 108.508C896.461 113.102 898.242 118.75 898.242 125.453Z" fill="#0F365F"/>
<path d="M411.258 102.461C411.258 119.477 407.039 132.555 398.602 141.695C390.164 150.836 378.07 155.406 362.32 155.406C346.57 155.406 334.477 150.836 326.039 141.695C317.602 132.555 313.383 119.43 313.383 102.32C313.383 85.2109 317.602 72.1562 326.039 63.1562C334.523 54.1094 346.664 49.5859 362.461 49.5859C378.258 49.5859 390.328 54.1328 398.672 63.2266C407.062 72.3203 411.258 85.3984 411.258 102.461ZM336.234 102.461C336.234 113.945 338.414 122.594 342.773 128.406C347.133 134.219 353.648 137.125 362.32 137.125C379.711 137.125 388.406 125.57 388.406 102.461C388.406 79.3047 379.758 67.7266 362.461 67.7266C353.789 67.7266 347.25 70.6562 342.844 76.5156C338.438 82.3281 336.234 90.9766 336.234 102.461ZM721.758 154L714.305 129.531H676.828L669.375 154H645.891L682.172 50.7812H708.82L745.242 154H721.758ZM709.102 111.25C702.211 89.0781 698.32 76.5391 697.43 73.6328C696.586 70.7266 695.977 68.4297 695.602 66.7422C694.055 72.7422 689.625 87.5781 682.312 111.25H709.102Z" fill="#D2AB66"/>
<ellipse cx="362" cy="102.5" rx="35" ry="35.5" fill="#D2AB66"/>
<path d="M695.5 67L715.852 113.5H675.148L695.5 67Z" fill="#D2AB66"/>
</svg>
